<?xml version="1.0" standalone="no"?>
<!DOCTYPE svg PUBLIC "-//W3C//DTD SVG 20010904//EN"
 "http://www.w3.org/TR/2001/REC-SVG-20010904/DTD/svg10.dtd">
<svg version="1.0" xmlns="http://www.w3.org/2000/svg"
 width="50.000000pt" height="50.000000pt" viewBox="0 0 50.000000 50.000000"
 preserveAspectRatio="xMidYMid meet">

<g transform="translate(0.000000,50.000000) scale(0.100000,-0.100000)"
fill="#000000" stroke="none">
<path d="M150 342 c0 -5 -10 -14 -22 -20 -23 -10 -23 -11 5 -11 15 -1 27 1 27
3 0 2 3 11 6 20 3 9 1 16 -5 16 -6 0 -11 -4 -11 -8z"/>
<path d="M420 285 c0 -9 -9 -15 -25 -15 -18 0 -25 -5 -25 -20 0 -18 3 -19 20
-10 14 7 20 7 20 0 0 -5 7 -10 15 -10 8 0 15 9 15 19 0 11 3 26 6 35 4 11 1
16 -10 16 -9 0 -16 -7 -16 -15z"/>
<path d="M37 278 c4 -7 6 -21 5 -30 -2 -10 2 -18 8 -18 6 0 8 5 5 10 -3 6 -1
10 4 10 7 0 7 7 -1 20 -7 11 -16 20 -21 20 -4 0 -5 -6 0 -12z"/>
<path d="M123 258 c-26 -13 -32 -44 -7 -34 9 3 19 6 22 6 4 0 0 5 -8 10 -12 8
-11 10 8 10 12 0 22 5 22 10 0 12 -8 12 -37 -2z"/>
<path d="M260 260 c0 -6 -6 -10 -13 -8 -7 2 -14 -1 -15 -7 -1 -6 21 -11 50
-12 38 -1 46 1 28 6 -14 4 -24 13 -22 19 1 7 -5 12 -13 12 -8 0 -15 -5 -15
-10z"/>
<path d="M176 241 c-3 -5 3 -11 14 -14 11 -3 20 -12 20 -19 0 -20 -30 -19 -30
1 -1 14 -2 14 -14 -1 -8 -11 -27 -18 -47 -19 -19 0 -28 -3 -21 -6 6 -2 12 -11
12 -19 0 -8 5 -14 10 -14 6 0 10 7 10 15 0 15 16 19 61 16 27 -2 52 30 30 37
-6 2 -11 10 -11 18 0 15 -26 19 -34 5z"/>
<path d="M350 193 c0 -12 -5 -25 -12 -29 -7 -5 -8 -3 -3 6 7 12 -10 30 -30 30
-5 0 -3 -5 5 -10 10 -6 11 -10 3 -10 -22 0 -14 -27 10 -34 34 -9 37 -8 37 14
0 17 7 20 43 22 l42 1 -40 4 c-22 3 -43 10 -47 16 -5 8 -8 4 -8 -10z"/>
</g>
</svg>
