<?xml version="1.0" standalone="no"?>
<!DOCTYPE svg PUBLIC "-//W3C//DTD SVG 20010904//EN"
 "http://www.w3.org/TR/2001/REC-SVG-20010904/DTD/svg10.dtd">
<svg version="1.0" xmlns="http://www.w3.org/2000/svg"
 width="50.000000pt" height="50.000000pt" viewBox="0 0 50.000000 50.000000"
 preserveAspectRatio="xMidYMid meet">

<g transform="translate(0.000000,50.000000) scale(0.100000,-0.100000)"
fill="#000000" stroke="none">
<path d="M100 480 c0 -11 5 -20 10 -20 6 0 10 9 10 20 0 11 -4 20 -10 20 -5 0
-10 -9 -10 -20z"/>
<path d="M238 479 c-14 -11 -52 -35 -82 -53 l-56 -34 -30 30 c-32 32 -63 34
-68 4 -3 -12 0 -16 7 -11 7 4 19 1 27 -6 13 -10 12 -14 -2 -30 -16 -18 -16
-19 12 -19 38 1 90 25 189 89 62 39 74 51 55 51 -14 0 -37 -10 -52 -21z"/>
<path d="M400 455 c-19 -7 -90 -37 -157 -67 -114 -49 -123 -55 -123 -80 0 -35
15 -35 71 -3 60 34 69 32 69 -15 0 -37 -2 -40 -37 -49 -21 -6 -52 -11 -69 -11
-18 0 -34 -6 -37 -13 -7 -18 3 -98 14 -119 9 -16 5 -18 -31 -18 l-40 0 4 63
c3 70 -6 107 -28 107 -8 0 -18 5 -22 11 -5 8 1 10 20 7 24 -5 26 -2 26 27 0
28 -5 35 -30 44 -26 9 -30 8 -30 -9 0 -10 9 -22 20 -25 11 -4 18 -11 14 -16
-3 -6 -12 -8 -20 -5 -20 8 -19 -48 1 -64 11 -9 15 -33 15 -90 0 -81 6 -93 46
-85 11 2 45 4 77 4 49 1 57 4 57 20 0 10 -7 24 -15 31 -9 7 -15 29 -15 55 0
38 3 43 28 49 15 3 37 8 50 12 16 5 22 2 22 -10 0 -9 -7 -19 -15 -22 -11 -4
-15 -21 -15 -59 0 -70 13 -80 105 -80 63 0 76 3 108 28 31 23 37 34 37 64 0
20 -7 45 -17 55 -15 17 -15 19 0 36 11 12 17 36 17 70 0 44 -3 52 -18 52 -27
0 -59 37 -44 52 6 6 18 8 26 5 18 -7 22 -27 6 -27 -5 0 -10 -4 -10 -10 0 -5 9
-10 20 -10 17 0 20 7 20 49 0 64 -25 76 -100 46z m24 -50 c-4 -9 -19 -15 -38
-15 l-31 1 25 14 c33 19 51 19 44 0z m29 -84 l32 -32 -43 -39 c-40 -36 -41
-39 -25 -52 10 -7 27 -23 37 -36 19 -22 19 -22 -17 -57 -29 -28 -44 -35 -77
-35 -54 0 -80 15 -80 45 0 22 5 25 34 25 39 0 50 11 41 40 -4 13 -15 20 -31
20 -15 0 -24 6 -24 15 0 9 9 15 24 15 33 0 53 25 35 46 -12 15 -24 15 -61 -1
-15 -6 -18 -1 -18 33 0 47 11 52 93 48 40 -3 55 -9 80 -35z"/>
<path d="M110 440 c0 -5 5 -10 11 -10 5 0 7 5 4 10 -3 6 -8 10 -11 10 -2 0 -4
-4 -4 -10z"/>
</g>
</svg>
