<?xml version="1.0" standalone="no"?>
<!DOCTYPE svg PUBLIC "-//W3C//DTD SVG 20010904//EN"
 "http://www.w3.org/TR/2001/REC-SVG-20010904/DTD/svg10.dtd">
<svg version="1.0" xmlns="http://www.w3.org/2000/svg"
 width="50.000000pt" height="50.000000pt" viewBox="0 0 50.000000 50.000000"
 preserveAspectRatio="xMidYMid meet">

<g transform="translate(0.000000,50.000000) scale(0.100000,-0.100000)"
fill="#000000" stroke="none">
<path d="M260 431 c-12 -23 -3 -51 16 -51 18 0 19 -47 2 -53 -7 -2 -10 -7 -6
-11 3 -4 17 -3 30 4 l23 11 -24 -21 c-30 -25 -43 -22 -52 14 -6 22 -5 26 7 22
18 -7 18 8 -1 24 -21 18 -31 -12 -17 -56 10 -32 1 -56 -13 -34 -4 6 -11 8 -16
4 -6 -4 -6 -11 1 -19 7 -8 9 -19 6 -24 -4 -5 10 -15 29 -22 22 -8 35 -20 35
-31 0 -10 5 -18 10 -18 6 0 10 -6 9 -13 -5 -36 13 -52 25 -21 3 8 2 13 -2 10
-5 -3 -9 1 -9 8 0 10 9 11 36 5 39 -9 71 3 71 27 0 8 -7 17 -15 21 -14 5 -14
7 0 23 14 15 14 18 0 30 -21 17 -19 27 8 34 12 4 38 20 57 36 31 27 32 30 12
30 -12 0 -22 -6 -22 -12 0 -7 -11 0 -25 15 -26 27 -55 36 -55 17 0 -5 5 -10
10 -10 20 0 10 -28 -16 -45 -19 -12 -25 -23 -21 -40 3 -20 -8 -35 -26 -35 -1
0 -1 20 1 44 3 33 9 45 23 49 10 3 19 11 19 17 0 10 -3 10 -14 1 -11 -9 -21
-5 -46 21 -29 28 -30 33 -16 43 21 16 20 25 -4 25 -10 0 -24 -9 -30 -19z m167
-96 c-4 -8 -11 -15 -17 -15 -7 0 -7 6 0 21 13 23 26 19 17 -6z m-91 -130 c-11
-8 -24 -15 -30 -15 -5 0 -1 7 10 15 10 8 24 14 29 14 6 0 1 -6 -9 -14z m71
-27 c-3 -8 -6 -5 -6 6 -1 11 2 17 5 13 3 -3 4 -12 1 -19z"/>
<path d="M145 399 c-4 -6 -5 -12 -2 -15 2 -3 7 2 10 11 7 17 1 20 -8 4z"/>
<path d="M75 371 c-3 -6 -3 -11 2 -11 4 0 1 -5 -7 -10 -13 -8 -12 -10 3 -10
11 0 17 -7 16 -22 0 -13 -3 -17 -6 -10 -2 6 -14 12 -25 12 -15 0 -18 -5 -13
-20 4 -13 1 -22 -9 -26 -35 -13 -11 -44 34 -44 11 0 23 -6 27 -12 4 -7 17 -13
27 -13 11 0 20 -8 22 -18 2 -14 -2 -16 -19 -11 -12 4 -29 8 -37 9 -8 1 -23 5
-33 9 -21 10 -48 -10 -41 -29 6 -13 77 -15 90 -2 4 3 15 2 26 -4 22 -12 34 -6
41 21 3 11 1 18 -3 15 -5 -3 -9 3 -10 12 -1 49 -5 63 -16 63 -7 0 -16 -9 -19
-20 -5 -16 -12 -19 -28 -14 -31 9 -33 13 -12 27 10 8 18 26 18 43 -1 53 -15
86 -28 65z"/>
<path d="M193 185 c-8 -22 4 -30 21 -16 10 8 16 9 21 1 3 -5 11 -10 17 -10 6
0 -1 9 -15 20 -30 24 -36 25 -44 5z"/>
<path d="M351 87 c2 -1 13 -9 24 -17 19 -14 19 -14 6 3 -7 9 -18 17 -24 17 -6
0 -8 -1 -6 -3z"/>
</g>
</svg>
